<svg width="27" height="27" viewBox="0 0 27 27" fill="none" xmlns="http://www.w3.org/2000/svg">
<path d="M21.8202 24.7625H13.5C6.98625 24.7625 1.6875 19.7093 1.6875 13.4984C1.6875 7.28759 6.98625 2.23438 13.5 2.23438C20.0138 2.23438 25.3125 7.28759 25.3125 13.4984C25.3101 16.1851 24.3135 18.7759 22.5146 20.7716L23.1896 21.4466C23.461 21.718 23.6457 22.0638 23.7205 22.4403C23.7953 22.8167 23.7568 23.2069 23.6099 23.5615C23.4629 23.916 23.2142 24.2191 22.895 24.4322C22.5759 24.6454 22.2007 24.7592 21.8168 24.7591L21.8202 24.7625ZM13.5 3.92187C7.91691 3.92187 3.375 8.21825 3.375 13.4984C3.375 18.7786 7.91691 23.075 13.5 23.075H21.8202C21.8703 23.0751 21.9193 23.0604 21.9611 23.0326C22.0028 23.0049 22.0353 22.9654 22.0545 22.9191C22.0738 22.8728 22.0789 22.8219 22.0692 22.7728C22.0594 22.7236 22.0353 22.6784 21.9999 22.643L20.7343 21.3774C20.6552 21.2983 20.5926 21.2042 20.5502 21.1006C20.5078 20.9971 20.4864 20.8862 20.4872 20.7743C20.4881 20.6624 20.5112 20.5518 20.5552 20.4489C20.5992 20.346 20.6633 20.2529 20.7436 20.175C21.6494 19.3141 22.3717 18.2787 22.8669 17.1313C23.3621 15.9839 23.62 14.7481 23.625 13.4984C23.625 8.21825 19.0831 3.92187 13.5 3.92187Z" fill="#334DCF"/>
<path d="M14.7656 18.5625H12.2344C12.0106 18.5625 11.796 18.4736 11.6378 18.3154C11.4795 18.1571 11.3906 17.9425 11.3906 17.7188C11.3906 17.495 11.4795 17.2804 11.6378 17.1221C11.796 16.9639 12.0106 16.875 12.2344 16.875H14.7656C14.9894 16.875 15.204 16.9639 15.3622 17.1221C15.5205 17.2804 15.6094 17.495 15.6094 17.7188C15.6094 17.9425 15.5205 18.1571 15.3622 18.3154C15.204 18.4736 14.9894 18.5625 14.7656 18.5625Z" fill="#334DCF"/>
<path d="M13.5 18.5625C13.2762 18.5625 13.0616 18.4736 12.9033 18.3154C12.7451 18.1571 12.6562 17.9425 12.6562 17.7188V12.5432C12.4954 12.4503 12.3697 12.307 12.2986 12.1354C12.2275 11.9638 12.2151 11.7735 12.2631 11.5941C12.3112 11.4147 12.4171 11.2562 12.5645 11.1431C12.7118 11.03 12.8924 10.9688 13.0781 10.9688H13.5C13.7237 10.9688 13.9384 11.0576 14.0966 11.2159C14.2548 11.3741 14.3437 11.5887 14.3437 11.8125V17.7188C14.3437 17.9425 14.2548 18.1571 14.0966 18.3154C13.9384 18.4736 13.7237 18.5625 13.5 18.5625Z" fill="#334DCF"/>
<path d="M13.5 9.70313C14.199 9.70313 14.7656 9.13649 14.7656 8.4375C14.7656 7.73851 14.199 7.17188 13.5 7.17188C12.801 7.17188 12.2344 7.73851 12.2344 8.4375C12.2344 9.13649 12.801 9.70313 13.5 9.70313Z" fill="#334DCF"/>
</svg>
