<svg width="27" height="27" viewBox="0 0 27 27" fill="none" xmlns="http://www.w3.org/2000/svg">
<path d="M4.5 17.7188C3.67949 17.7188 2.89258 17.3928 2.31239 16.8126C1.7322 16.2324 1.40625 15.4455 1.40625 14.625V12.375C1.40625 11.5545 1.7322 10.7676 2.31239 10.1874C2.89258 9.6072 3.67949 9.28125 4.5 9.28125H5.625C5.84787 9.28416 6.06079 9.37399 6.2184 9.5316C6.37601 9.68921 6.46584 9.90213 6.46875 10.125V15.75C6.4658 16.2712 6.25743 16.7703 5.88885 17.1389C5.52028 17.5074 5.02123 17.7158 4.5 17.7188ZM4.5 10.9688C4.12704 10.9688 3.76935 11.1169 3.50563 11.3806C3.24191 11.6444 3.09375 12.002 3.09375 12.375V14.625C3.09375 14.998 3.24191 15.3556 3.50563 15.6194C3.76935 15.8831 4.12704 16.0312 4.5 16.0312C4.57459 16.0312 4.64613 16.0016 4.69887 15.9489C4.75162 15.8961 4.78125 15.8246 4.78125 15.75V10.9688H4.5Z" fill="#334DCF"/>
<path d="M22.5 17.7188H21.375C21.1521 17.7158 20.9392 17.626 20.7816 17.4684C20.624 17.3108 20.5342 17.0979 20.5312 16.875V10.125C20.5342 9.90213 20.624 9.68921 20.7816 9.5316C20.9392 9.37399 21.1521 9.28416 21.375 9.28125H22.5C23.3205 9.28125 24.1074 9.6072 24.6876 10.1874C25.2678 10.7676 25.5938 11.5545 25.5938 12.375V14.625C25.5938 15.4455 25.2678 16.2324 24.6876 16.8126C24.1074 17.3928 23.3205 17.7188 22.5 17.7188ZM22.2188 16.0312H22.5C22.873 16.0312 23.2306 15.8831 23.4944 15.6194C23.7581 15.3556 23.9063 14.998 23.9063 14.625V12.375C23.9063 12.002 23.7581 11.6444 23.4944 11.3806C23.2306 11.1169 22.873 10.9688 22.5 10.9688H22.2188V16.0312Z" fill="#334DCF"/>
<path d="M21.375 12.0938C21.1521 12.0908 20.9392 12.001 20.7816 11.8434C20.624 11.6858 20.5342 11.4729 20.5313 11.25C20.5313 9.3852 19.7905 7.59677 18.4718 6.27816C17.1532 4.95954 15.3648 4.21875 13.5 4.21875C11.6352 4.21875 9.84677 4.95954 8.52816 6.27816C7.20954 7.59677 6.46875 9.3852 6.46875 11.25C6.46875 11.4738 6.37986 11.6884 6.22162 11.8466C6.06339 12.0049 5.84878 12.0938 5.625 12.0938C5.40122 12.0938 5.18661 12.0049 5.02838 11.8466C4.87014 11.6884 4.78125 11.4738 4.78125 11.25C4.78125 8.93764 5.69983 6.72 7.33491 5.08491C8.97 3.44983 11.1876 2.53125 13.5 2.53125C15.8124 2.53125 18.03 3.44983 19.6651 5.08491C21.3002 6.72 22.2188 8.93764 22.2188 11.25C22.2158 11.4729 22.126 11.6858 21.9684 11.8434C21.8108 12.001 21.5979 12.0908 21.375 12.0938Z" fill="#334DCF"/>
<path d="M16.875 23.3438H14.625C14.4012 23.3438 14.1866 23.2549 14.0284 23.0966C13.8701 22.9384 13.7812 22.7238 13.7812 22.5C13.7812 22.2762 13.8701 22.0616 14.0284 21.9034C14.1866 21.7451 14.4012 21.6563 14.625 21.6563H16.875C17.8438 21.6533 18.772 21.2671 19.4571 20.5821C20.1421 19.897 20.5283 18.9688 20.5312 18V16.875C20.5312 16.6512 20.6201 16.4366 20.7784 16.2784C20.9366 16.1201 21.1512 16.0312 21.375 16.0312C21.5988 16.0312 21.8134 16.1201 21.9716 16.2784C22.1299 16.4366 22.2188 16.6512 22.2188 16.875V18C22.2188 19.4173 21.6557 20.7765 20.6536 21.7786C19.6515 22.7807 18.2923 23.3438 16.875 23.3438Z" fill="#334DCF"/>
<path d="M13.5 24.4688H12.375C11.8529 24.4688 11.3521 24.2613 10.9829 23.8921C10.6137 23.5229 10.4062 23.0221 10.4062 22.5C10.4062 21.9779 10.6137 21.4771 10.9829 21.1079C11.3521 20.7387 11.8529 20.5313 12.375 20.5312H13.5C14.0221 20.5313 14.5229 20.7387 14.8921 21.1079C15.2613 21.4771 15.4688 21.9779 15.4688 22.5C15.4688 23.0221 15.2613 23.5229 14.8921 23.8921C14.5229 24.2613 14.0221 24.4688 13.5 24.4688ZM12.375 22.2188C12.3004 22.2188 12.2289 22.2484 12.1761 22.3011C12.1234 22.3539 12.0938 22.4254 12.0938 22.5C12.0938 22.5746 12.1234 22.6461 12.1761 22.6989C12.2289 22.7516 12.3004 22.7813 12.375 22.7813H13.5C13.5746 22.7813 13.6461 22.7516 13.6989 22.6989C13.7516 22.6461 13.7813 22.5746 13.7813 22.5C13.7813 22.4254 13.7516 22.3539 13.6989 22.3011C13.6461 22.2484 13.5746 22.2188 13.5 22.2188H12.375Z" fill="#334DCF"/>
</svg>
