<svg width="98" height="91" viewBox="0 0 98 91" fill="none" xmlns="http://www.w3.org/2000/svg">
<path d="M41.7086 14.1769L41.7329 14.1981L41.7598 14.216C41.8011 14.2436 41.8383 14.2914 41.8592 14.3595C41.881 14.4304 41.8773 14.4983 41.8628 14.5419L41.8529 14.5714L41.8468 14.6019L40.8482 19.5952C40.4475 21.3585 42.3363 22.6094 43.8607 21.8472L43.8726 21.8413L43.8841 21.8347L48.2841 19.3347L48.2996 19.3259L48.3145 19.316C48.4465 19.228 48.6277 19.228 48.7598 19.316L48.7746 19.3259L48.7901 19.3347L53.1879 21.8334C54.7822 22.7606 56.6122 21.2965 56.2261 19.5952L55.2274 14.6019L55.2213 14.5714L55.2115 14.5419C55.1969 14.4983 55.1932 14.4304 55.215 14.3595C55.236 14.2914 55.2731 14.2436 55.3145 14.216L55.344 14.1963L55.3705 14.1726L59.1705 10.7726L59.1716 10.7716C60.4677 9.60517 59.8536 7.34517 57.9848 7.20217L52.8955 6.60343L52.8664 6.6H52.8399C52.8399 6.6 52.8399 6.59999 52.8399 6.59998C52.84 6.59949 52.799 6.5932 52.7162 6.52552C52.6355 6.45948 52.5506 6.36321 52.4743 6.25375L50.392 1.69235L50.3883 1.68431L50.3843 1.67639C49.6001 0.107869 47.3742 0.107869 46.5899 1.67639L46.5859 1.68431L46.5823 1.69235L44.4823 6.29235L44.4712 6.3166L44.4628 6.34189C44.4428 6.40194 44.3521 6.52468 44.0448 6.60741L38.9787 7.20342L38.9699 7.20446L38.9611 7.20581C38.1158 7.33586 37.4967 7.92292 37.2525 8.62281C37.0057 9.33045 37.1378 10.1733 37.8026 10.7716L37.8026 10.7717L37.8085 10.7769L41.7086 14.1769Z" fill="white" stroke="white"/>
<path d="M17.5221 24.3211L17.5347 24.271L17.5367 24.2195L17.7363 19.1282C17.7997 18.2487 17.2852 17.5542 16.6275 17.2173C15.97 16.8806 15.1032 16.8667 14.4247 17.4094L10.4426 20.5951C10.241 20.7264 10.0909 20.7669 9.88327 20.7207L5.11447 18.9324C3.40542 18.2769 1.81355 19.983 2.47185 21.5833L4.26525 26.3657C4.32607 26.5547 4.30184 26.728 4.18351 26.8463L4.16393 26.8659L4.14663 26.8875L0.946631 30.8875L0.939455 30.8965L0.932697 30.9058C0.423932 31.6053 0.380529 32.4548 0.714852 33.1235C1.05285 33.7995 1.76332 34.2603 2.66421 34.1992L7.74393 34C7.7974 34.0017 7.89501 34.0234 8.01504 34.0788C8.11623 34.1255 8.20004 34.1808 8.2537 34.2262L11.0183 38.373C11.4875 39.1061 12.314 39.3919 13.0517 39.2957C13.794 39.1989 14.5123 38.7041 14.7211 37.8257L16.1141 32.9502C16.1362 32.8895 16.1866 32.8075 16.2656 32.7284C16.3447 32.6494 16.4267 32.599 16.4874 32.5769L21.367 31.1827C22.2002 30.9703 22.6837 30.2493 22.7939 29.5251C22.9049 28.7958 22.6553 27.9581 21.9103 27.4811L17.7144 24.6838C17.6144 24.6172 17.5599 24.5524 17.5343 24.5013C17.5135 24.4597 17.5006 24.4071 17.5221 24.3211Z" fill="white" stroke="white"/>
<path d="M96.1415 30.8058L96.1348 30.7965L96.1276 30.7875L92.9419 26.8054C92.8106 26.6038 92.7701 26.4537 92.8163 26.2461L94.6038 21.4793C94.6041 21.4787 94.6044 21.478 94.6046 21.4773C95.2601 19.7682 93.5541 18.1763 91.9537 18.8346L87.1713 20.628C86.9824 20.6889 86.809 20.6646 86.6907 20.5463L86.6711 20.5267L86.6495 20.5094L82.6495 17.3094L82.6405 17.3022L82.6312 17.2955C81.9317 16.7867 81.0822 16.7433 80.4136 17.0776C79.7375 17.4156 79.2767 18.1261 79.3378 19.027L79.537 24.1067C79.5353 24.1602 79.5136 24.2578 79.4582 24.3778C79.4115 24.479 79.3562 24.5628 79.3108 24.6165L75.1639 27.3811C74.4309 27.8503 74.1451 28.6768 74.2414 29.4145C74.3382 30.1568 74.8329 30.8751 75.7114 31.0839L80.5868 32.4769C80.6476 32.499 80.7295 32.5494 80.8086 32.6284C80.8877 32.7075 80.938 32.7895 80.9601 32.8502L82.3564 37.7372L82.3563 37.7372L82.3593 37.7469C82.6178 38.5871 83.3039 39.1157 84.0478 39.2314C84.7957 39.3478 85.5993 39.0445 86.061 38.2655L88.8532 34.0772C88.9199 33.9772 88.9846 33.9227 89.0358 33.8971C89.0774 33.8763 89.1299 33.8634 89.2159 33.8849L89.266 33.8975L89.3176 33.8995L94.4088 34.0991C96.1687 34.2266 97.166 32.2144 96.1415 30.8058Z" fill="white" stroke="white"/>
<path d="M45.9386 26.0601L45.9384 26.0601L45.9376 26.0742L45.1376 41.5742L45.1076 42.1554L45.6867 42.0975C46.6582 42.0004 47.5342 42 48.537 42C49.5054 42 50.3792 42.0966 51.2817 42.1969L51.8628 42.2615L51.8365 41.6774L51.1365 26.1774L51.1361 26.1695L51.1355 26.1616C51.0121 24.5572 49.7528 23.7526 48.5432 23.7375C47.3396 23.7225 46.064 24.4925 45.9386 26.0601Z" fill="white" stroke="white"/>
<path d="M32.0124 15.5445L32.0125 15.5444L32.008 15.5316C31.5879 14.3554 30.825 13.6132 29.9231 13.2726C29.0339 12.9369 28.0563 13.0088 27.217 13.3644C26.3777 13.72 25.6439 14.3732 25.2581 15.2441C24.8669 16.1271 24.8524 17.1921 25.3854 18.3143L25.3853 18.3144L25.3913 18.3262L34.982 37.2079C35.277 37.917 35.9794 38.2998 36.7371 38.2998C37.3721 38.2998 37.9347 37.9518 38.2854 37.4895C38.638 37.0247 38.8238 36.3807 38.6119 35.7431C38.6118 35.7426 38.6116 35.7422 38.6114 35.7417L32.0124 15.5445Z" fill="white" stroke="white"/>
<path d="M30.1371 49.6L30.1655 49.5787L30.1907 49.5535C31.2698 48.4744 32.4507 47.4898 33.6371 46.6L34.1163 46.2406L33.6771 45.8334L22.6836 35.6394C22.0392 35.0006 21.1506 34.8782 20.4053 35.1171C19.5125 35.3196 18.9012 36.0191 18.66 36.7878C18.4173 37.5615 18.5248 38.4887 19.1763 39.1462L29.0701 49.8396L29.3763 50.1706L29.7371 49.9L30.1371 49.6Z" fill="white" stroke="white"/>
<path d="M74.3036 35.7275L74.3035 35.7274L74.297 35.7335L63.297 45.9335L62.8405 46.3568L63.3524 46.7112C64.6178 47.5873 65.6939 48.5642 66.7834 49.6537L66.9834 49.8537L67.1834 50.0537L67.551 50.4212L67.904 50.0397L77.804 39.3397L77.8111 39.3319L77.8179 39.3239C78.8544 38.1045 78.5788 36.6628 77.7437 35.8123C76.9091 34.9622 75.4807 34.6743 74.3036 35.7275Z" fill="white" stroke="white"/>
<path d="M62.1659 37.2571L62.1747 37.2425L62.1825 37.2272L71.8825 18.2272L71.8857 18.2209L71.8888 18.2144C72.4214 17.0931 72.4081 16.0335 72.0154 15.1565C71.6282 14.2919 70.8927 13.6489 70.0539 13.3006C69.2152 12.9523 68.2401 12.8848 67.3537 13.214C66.4546 13.5479 65.6896 14.2747 65.2676 15.4281L65.2646 15.4363L65.2619 15.4446L58.6643 35.6372C58.4187 36.3196 58.5004 36.9885 58.8506 37.4962C59.1996 38.0024 59.7832 38.2999 60.4372 38.2999C61.1376 38.2999 61.7891 37.8852 62.1659 37.2571Z" fill="white" stroke="white"/>
<path d="M32.5815 83.8515L32.5835 83.8536C41.3799 92.6499 55.6949 92.647 64.5886 83.8556L64.5906 83.8536C73.387 75.0572 73.3841 60.7421 64.5926 51.8485L64.5927 51.8485L64.5886 51.8444C55.6949 43.053 41.3799 43.0501 32.5835 51.8464C23.7871 60.6428 23.79 74.9579 32.5815 83.8515ZM59.2078 74.8C58.9614 76.8872 57.1917 78.5 55.0371 78.5C52.7132 78.5 50.8371 76.6239 50.8371 74.3C50.8371 71.9761 52.7132 70.1 55.0371 70.1C55.5863 70.1 56.1213 70.1922 56.5514 70.3642L57.2371 70.6385V69.9V62.4V61.8512L56.6907 61.9022L44.8907 63.0022L44.4371 63.0444V63.5V75.7C44.4371 78.0239 42.5609 79.9 40.2371 79.9C37.9132 79.9 36.0371 78.0239 36.0371 75.7C36.0371 73.3761 37.9132 71.5 40.2371 71.5C40.7863 71.5 41.3213 71.5922 41.7514 71.7642L42.4371 72.0385V71.3V59C42.4371 58.4711 42.8296 58.0685 43.2972 57.9965L58.0607 56.6H58.1371C58.2953 56.6 58.4057 56.6198 58.4951 56.6542C58.5822 56.6877 58.6748 56.7448 58.7835 56.8536C59.0133 57.0834 59.1371 57.3626 59.1371 57.6V74.3V74.8H59.2078Z" fill="white" stroke="white"/>
</svg>
