<svg width="27" height="27" viewBox="0 0 27 27" fill="none" xmlns="http://www.w3.org/2000/svg">
<path d="M9.85089 16.1175L8.95797 17.0105C8.95779 17.0106 8.9576 17.0108 8.95741 17.011C8.88804 17.0786 8.83275 17.1592 8.79474 17.2483L8.88664 17.2875L8.79474 17.2483C8.75662 17.3376 8.73664 17.4337 8.73596 17.5308C8.73527 17.6279 8.75389 17.7242 8.79074 17.814C8.82758 17.9039 8.88192 17.9855 8.95059 18.0542C9.01926 18.1228 9.1009 18.1772 9.19075 18.214C9.2806 18.2509 9.37688 18.2695 9.474 18.2688C9.57111 18.2681 9.66712 18.2481 9.75644 18.21C9.84553 18.172 9.92621 18.1167 9.99379 18.0473C9.99397 18.0471 9.99414 18.047 9.99431 18.0468L10.8872 17.1539C10.8874 17.1537 10.8876 17.1535 10.8878 17.1533C10.9579 17.0851 11.0136 17.0035 11.0516 16.9134C11.0898 16.823 11.1094 16.7259 11.1094 16.6278C11.1093 16.5297 11.0896 16.4326 11.0513 16.3423C11.013 16.252 10.957 16.1703 10.8866 16.102C10.7471 15.9669 10.5597 15.8926 10.3655 15.8955C10.1716 15.8984 9.9867 15.9781 9.8514 16.117C9.85123 16.1172 9.85106 16.1174 9.85089 16.1175ZM18.2107 9.18286L18.1187 9.22188L18.2107 9.18286C18.1725 9.09254 18.1164 9.01083 18.046 8.94256C17.9066 8.8074 17.7192 8.73311 17.525 8.73602C17.331 8.73893 17.1462 8.81859 17.0109 8.95755C17.0107 8.95772 17.0105 8.9579 17.0103 8.95808L11.3445 14.624C11.3443 14.6241 11.3441 14.6243 11.3439 14.6245C11.2745 14.6921 11.2192 14.7727 11.1812 14.8618C11.1431 14.9512 11.1231 15.0472 11.1224 15.1443C11.1218 15.2414 11.1404 15.3377 11.1772 15.4275C11.2141 15.5174 11.2684 15.599 11.3371 15.6677C11.4057 15.7364 11.4874 15.7907 11.5772 15.8275C11.6671 15.8644 11.7634 15.883 11.8605 15.8823C11.9576 15.8816 12.0536 15.8617 12.1429 15.8235C12.232 15.7855 12.3127 15.7302 12.3803 15.6608C12.3805 15.6607 12.3806 15.6605 12.3808 15.6603L18.0467 9.99442C18.0469 9.99424 18.0471 9.99405 18.0472 9.99387C18.1173 9.92562 18.173 9.84403 18.2111 9.75391C18.2493 9.66354 18.2689 9.56644 18.2688 9.46835C18.2688 9.37025 18.249 9.27317 18.2107 9.18286Z" fill="#334DCF" stroke="#334DCF" stroke-width="0.2"/>
<path d="M16.0312 14.2437C14.8185 14.2437 13.8219 15.2404 13.8219 16.4531C13.8219 17.6658 14.8185 18.6625 16.0312 18.6625C17.244 18.6625 18.2406 17.6658 18.2406 16.4531C18.2406 15.2404 17.244 14.2437 16.0312 14.2437ZM16.0312 15.7094C16.4495 15.7094 16.775 16.0349 16.775 16.4531C16.775 16.8714 16.4495 17.1969 16.0312 17.1969C15.613 17.1969 15.2875 16.8714 15.2875 16.4531C15.2875 16.0349 15.613 15.7094 16.0312 15.7094Z" fill="#334DCF" stroke="#334DCF" stroke-width="0.2"/>
<path d="M10.9688 8.3375C9.75604 8.3375 8.75937 9.33417 8.75937 10.5469C8.75937 11.7596 9.75604 12.7562 10.9688 12.7562C12.1815 12.7562 13.1781 11.7596 13.1781 10.5469C13.1781 9.33417 12.1815 8.3375 10.9688 8.3375ZM10.9688 9.80313C11.387 9.80313 11.7125 10.1286 11.7125 10.5469C11.7125 10.9651 11.387 11.2906 10.9688 11.2906C10.5505 11.2906 10.225 10.9651 10.225 10.5469C10.225 10.1286 10.5505 9.80313 10.9688 9.80313Z" fill="#334DCF" stroke="#334DCF" stroke-width="0.2"/>
<path d="M20.4871 20.9234C20.6581 20.9713 20.8119 20.9592 20.946 20.901C21.0788 20.8435 21.1851 20.744 21.2689 20.6287C21.4336 20.4021 21.5239 20.0976 21.5618 19.8564C21.6985 19.3999 22.0456 19.1099 22.4648 18.8457C22.5697 18.7796 22.6779 18.7158 22.7877 18.6514L22.8168 18.6343C22.9168 18.5757 23.018 18.5165 23.1171 18.4553C23.3306 18.3236 23.5395 18.1805 23.7178 18.0084C24.5984 17.5019 24.7502 16.4078 24.3558 15.5599C24.2854 15.3056 24.1835 15.0508 24.0825 14.8008L24.0724 14.7758C23.973 14.5297 23.8754 14.288 23.8046 14.0464C23.659 13.5498 23.6313 13.0698 23.9368 12.5917L23.944 12.5804L23.948 12.5675C24.0072 12.3769 24.0846 12.1775 24.1654 11.9691C24.1837 11.9219 24.2021 11.8743 24.2206 11.8263C24.3199 11.568 24.4185 11.2984 24.4838 11.0284C24.6148 10.4871 24.6153 9.9272 24.2081 9.43481L24.2083 9.43466L24.2035 9.4296C23.8332 9.04065 23.3955 8.74051 22.9597 8.45405C22.9123 8.4229 22.865 8.39193 22.8178 8.36102C22.4334 8.10948 22.0561 7.86259 21.7195 7.5646C21.5278 7.17412 21.4165 6.74139 21.3022 6.2971C21.2638 6.14761 21.225 5.99681 21.1827 5.84587C21.0151 5.24796 20.7936 4.65803 20.3088 4.2114L20.3001 4.20345L20.2899 4.19771C19.712 3.87391 19.0788 3.84803 18.4549 3.87581C18.2993 3.88274 18.1448 3.89289 17.9917 3.90295C17.5285 3.93338 17.0776 3.963 16.6427 3.90037C16.2559 3.69839 15.9081 3.41068 15.5503 3.11471C15.4319 3.01676 15.3124 2.91791 15.19 2.82096C14.7002 2.43289 14.1711 2.08262 13.5162 2.00998L13.505 2.00874L13.4938 2.01002C12.8365 2.08526 12.3084 2.4341 11.8194 2.82108C11.6968 2.91811 11.577 3.01707 11.4584 3.11516C11.1017 3.40996 10.7545 3.69696 10.3666 3.90039C9.93172 3.963 9.48079 3.93338 9.01762 3.90295C8.86451 3.89289 8.71007 3.88274 8.55443 3.87581C7.93058 3.84803 7.29731 3.87391 6.71947 4.19771L6.70924 4.20345L6.70061 4.2114C6.21574 4.65803 5.99426 5.24796 5.82669 5.84587C5.78438 5.99681 5.74559 6.14761 5.70713 6.2971C5.59264 6.74217 5.48114 7.17563 5.28884 7.56664C4.97414 7.87083 4.59254 8.10995 4.20053 8.3556C4.07054 8.43705 3.93941 8.51922 3.8092 8.60471C3.28843 8.94664 2.7915 9.33764 2.51429 9.93751L2.5093 9.9483L2.50698 9.95996C2.37841 10.6066 2.5482 11.2133 2.76643 11.7945C2.82164 11.9415 2.87962 12.0863 2.9371 12.2299C3.10772 12.656 3.27388 13.071 3.34969 13.4994C3.27394 13.9279 3.10774 14.343 2.93707 14.7693C2.87966 14.9127 2.82174 15.0574 2.76658 15.2043C2.54834 15.7854 2.37849 16.3921 2.50698 17.0388L2.50929 17.0504L2.51424 17.0611C2.79094 17.6616 3.28804 18.0525 3.80899 18.3942C3.93903 18.4795 4.06998 18.5615 4.19978 18.6428C4.59217 18.8884 4.97411 19.1275 5.28882 19.4321C5.48108 19.8231 5.59255 20.2567 5.707 20.7018C5.74546 20.8514 5.78425 21.0023 5.82657 21.1534C5.99412 21.7515 6.21561 22.3415 6.70061 22.7883L6.70924 22.7963L6.71947 22.802C7.29731 23.1258 7.93058 23.1517 8.55443 23.1239C8.71007 23.117 8.86451 23.1068 9.01761 23.0968C9.4808 23.0663 9.93175 23.0367 10.3666 23.0993C10.7554 23.3027 11.1031 23.5902 11.4603 23.8855C11.5785 23.9832 11.6976 24.0817 11.8196 24.1783C12.3085 24.5654 12.8365 24.9145 13.4938 24.9897L13.5052 24.991L13.5166 24.9897C14.1736 24.9142 14.7014 24.5651 15.1901 24.178C15.3119 24.0815 15.4309 23.9832 15.5488 23.8857C15.9065 23.5899 16.2548 23.302 16.6441 23.0986C17.1264 23.0136 17.6241 23.0268 18.1328 23.0403C18.2395 23.0431 18.3467 23.046 18.4543 23.0479C19.0743 23.0592 19.7042 23.0402 20.2987 22.7992L20.3079 22.7955L20.3161 22.79C20.6565 22.5662 20.6724 22.1694 20.5261 21.8792C20.3808 21.591 20.0556 21.3677 19.6769 21.4987C19.3242 21.5681 18.9527 21.5806 18.5707 21.5764C18.424 21.5748 18.2741 21.5707 18.1234 21.5665C17.8841 21.5599 17.6425 21.5532 17.4071 21.5565C16.6364 21.5673 15.8732 21.6834 15.2425 22.2689C15.0794 22.3585 14.9162 22.4894 14.7566 22.6281C14.6863 22.6892 14.6179 22.7507 14.55 22.8118C14.4555 22.8968 14.3619 22.9811 14.2652 23.0623C14.1015 23.1999 13.9432 23.3163 13.7896 23.3883C13.6411 23.458 13.5044 23.4827 13.3749 23.4515C13.0893 23.299 12.8183 23.0979 12.5464 22.8814C12.4661 22.8174 12.3855 22.7519 12.3043 22.6861C12.1098 22.528 11.9125 22.3678 11.7114 22.2221C11.1416 21.8095 10.5126 21.4914 9.72198 21.609C9.53748 21.5864 9.32868 21.5969 9.1183 21.616C9.02537 21.6244 8.93375 21.6343 8.84273 21.6441C8.71615 21.6578 8.59072 21.6713 8.46452 21.6806C8.25089 21.6964 8.05403 21.6981 7.88706 21.6666C7.72569 21.6362 7.60028 21.5762 7.51345 21.4753C7.37288 21.1851 7.27272 20.8641 7.18071 20.53C7.15369 20.4319 7.12728 20.3323 7.10072 20.2321C7.03654 19.99 6.97147 19.7446 6.89463 19.5086C6.67744 18.8417 6.35632 18.2168 5.64777 17.8501C5.51176 17.7242 5.33658 17.6109 5.15519 17.5035C5.07556 17.4564 4.99608 17.4111 4.91712 17.3661C4.8062 17.303 4.69629 17.2404 4.58835 17.174C4.4063 17.0619 4.24614 16.9484 4.12979 16.8253C4.01738 16.7064 3.95144 16.5847 3.94081 16.4523C3.99821 16.1354 4.10677 15.8176 4.22983 15.4941C4.2664 15.398 4.30441 15.301 4.34264 15.2034C4.43347 14.9715 4.52557 14.7364 4.60268 14.5021C4.82174 13.8364 4.93219 13.1432 4.57549 12.4296C4.53972 12.2484 4.46494 12.0542 4.38169 11.8612C4.34528 11.7768 4.30789 11.6939 4.27074 11.6116C4.21824 11.4952 4.16622 11.3799 4.1181 11.2628C4.03713 11.0656 3.97478 10.8801 3.95339 10.7127C3.93273 10.551 3.95127 10.4145 4.02071 10.3018C4.25444 10.0789 4.53006 9.88537 4.82076 9.69576C4.90731 9.63931 4.99554 9.583 5.0843 9.52636C5.29457 9.39216 5.50776 9.2561 5.70842 9.11189C6.27889 8.70187 6.77807 8.20577 6.91254 7.41857C6.99132 7.25106 7.046 7.05014 7.09303 6.84516C7.11387 6.75433 7.1329 6.66435 7.1518 6.57498C7.17798 6.45117 7.20391 6.32852 7.23408 6.20638C7.28522 5.99936 7.34446 5.81275 7.42605 5.66497C7.50491 5.52211 7.60065 5.42267 7.7235 5.37262C8.04467 5.3291 8.38243 5.33365 8.73001 5.35006C8.83269 5.35491 8.93661 5.36082 9.04114 5.36678C9.29152 5.38103 9.54537 5.39548 9.79388 5.39592C10.4981 5.39714 11.1949 5.28699 11.768 4.72923C11.9306 4.63954 12.0935 4.50897 12.2526 4.37066C12.3226 4.3098 12.3908 4.24853 12.4585 4.18765C12.5532 4.10249 12.647 4.01812 12.7439 3.93675C12.9076 3.79932 13.0659 3.683 13.2196 3.61098C13.3681 3.54136 13.505 3.51652 13.6347 3.54739C13.9203 3.69994 14.1912 3.90106 14.4631 4.11751C14.5434 4.18144 14.6241 4.24696 14.7053 4.31286C14.8998 4.47082 15.097 4.63097 15.2981 4.77663C15.8679 5.1893 16.4968 5.50745 17.2873 5.39073C17.4718 5.41333 17.6807 5.40277 17.8911 5.3837C17.984 5.37527 18.0756 5.3654 18.1666 5.35559C18.2932 5.34195 18.4186 5.32843 18.5448 5.31912C18.7585 5.30334 18.9553 5.30158 19.1223 5.33308C19.2837 5.36353 19.4091 5.42349 19.496 5.52447C19.637 5.81442 19.7373 6.13529 19.8293 6.46928C19.8566 6.5685 19.8833 6.66926 19.9102 6.77062C19.974 7.01154 20.0387 7.25582 20.115 7.49061C20.3318 8.15749 20.6524 8.78252 21.3615 9.14869C21.4974 9.27492 21.6725 9.38841 21.8539 9.49587C21.9342 9.5435 22.0144 9.58914 22.094 9.63448C22.2042 9.69727 22.3134 9.75949 22.4209 9.82559C22.603 9.93763 22.7633 10.0512 22.8797 10.1742C22.9921 10.2931 23.058 10.4148 23.0686 10.5472C23.011 10.864 22.9024 11.1817 22.7794 11.5052C22.7429 11.6011 22.705 11.6978 22.6668 11.7952C22.5759 12.0272 22.4837 12.2625 22.4066 12.497C22.1876 13.1625 22.0772 13.8557 22.4339 14.5691C22.4697 14.7505 22.5445 14.9447 22.6277 15.1377C22.6641 15.2221 22.7015 15.3048 22.7386 15.3871C22.7911 15.5035 22.8431 15.6189 22.8913 15.7362C22.9722 15.9334 23.0346 16.119 23.0559 16.2864C23.0766 16.4483 23.058 16.5852 22.9884 16.6982C22.7645 16.9156 22.4999 17.1036 22.2195 17.2862C22.1196 17.3513 22.0169 17.4162 21.9135 17.4816C21.7265 17.5997 21.5372 17.7193 21.3579 17.8442C20.7997 18.233 20.2986 18.6988 20.1291 19.4399C20.0205 19.6673 19.935 19.979 19.9581 20.2618C19.9698 20.4065 20.0105 20.5491 20.0967 20.6682C20.1837 20.7886 20.3124 20.8783 20.4871 20.9234ZM20.4871 20.9234C20.4867 20.9233 20.4863 20.9232 20.4859 20.9231L20.513 20.8268L20.4882 20.9237C20.4878 20.9236 20.4874 20.9235 20.4871 20.9234Z" fill="#334DCF" stroke="#334DCF" stroke-width="0.2"/>
</svg>
