<svg width="18" height="18" viewBox="0 0 18 18" fill="none" xmlns="http://www.w3.org/2000/svg">
<g id="discount-star-01">
<path id="Icon" d="M6.2998 11.7L11.6998 6.29999M6.71523 6.71199L6.70462 6.70128M11.2981 11.342L11.2875 11.3313M5.94195 3.29048L5.17852 3.33698C4.18744 3.39734 3.39715 4.18762 3.33679 5.1787L3.2903 5.94213C3.26363 6.38006 3.09115 6.79647 2.80034 7.12499L2.29339 7.69769C1.63527 8.44117 1.63528 9.5588 2.29339 10.3023L2.80034 10.875C3.09115 11.2035 3.26363 11.6199 3.2903 12.0578L3.33679 12.8213C3.39715 13.8124 4.18744 14.6026 5.17852 14.663L5.94195 14.7095C6.37988 14.7362 6.79628 14.9086 7.1248 15.1994L7.69751 15.7064C8.44099 16.3645 9.55862 16.3645 10.3021 15.7064L10.8748 15.1994C11.2033 14.9086 11.6197 14.7362 12.0577 14.7095L12.8211 14.663C13.8122 14.6026 14.6025 13.8124 14.6628 12.8213L14.7093 12.0578C14.736 11.6199 14.9085 11.2035 15.1993 10.875L15.7062 10.3023C16.3643 9.5588 16.3643 8.44117 15.7062 7.69769L15.1993 7.12499C14.9085 6.79647 14.736 6.38006 14.7093 5.94213L14.6628 5.1787C14.6025 4.18762 13.8122 3.39734 12.8211 3.33698L12.0577 3.29048C11.6197 3.26381 11.2033 3.09133 10.8748 2.80053L10.3021 2.29358C9.55862 1.63546 8.44099 1.63546 7.69751 2.29358L7.1248 2.80053C6.79628 3.09133 6.37988 3.26381 5.94195 3.29048Z" stroke="white" stroke-width="1.5" stroke-linecap="round"/>
</g>
</svg>
