<svg width="24" height="26" viewBox="0 0 24 26" fill="none" xmlns="http://www.w3.org/2000/svg">
<path d="M21.6597 21.4111L18.4632 16.379C17.8404 15.3988 16.7753 14.8135 15.614 14.8135H14.0189V8.03585V7.99008L7.64576 0.734375H6.37304L0 7.99008V8.03585V25.8804H4.92773V23.3265H9.09112V25.8804H14.0189V19.2828H15.0875L18.284 24.3149C18.9067 25.2952 19.9718 25.8804 21.1331 25.8804H24V21.4111H21.6597ZM10.5645 24.407V19.2828H10.5697H12.5455V24.407H10.5645ZM1.4734 24.407V19.2828H3.44913H3.45433V24.407H1.4734ZM1.4734 9.50925H12.5455V17.8094H10.5697V14.8212C10.5697 12.8581 8.97251 11.261 7.0094 11.261C5.04629 11.261 3.44913 12.8581 3.44913 14.8212V17.8094H1.4734V9.50925ZM1.92082 8.03585L7.0094 2.24255L12.098 8.0359L1.92082 8.03585ZM4.92253 14.8212C4.92253 13.6705 5.85873 12.7344 7.0094 12.7344C8.16008 12.7344 9.09627 13.6705 9.09627 14.8212L9.09112 19.2828L4.92773 19.0511L4.92253 17.8094V14.8212ZM4.92773 21.8531V19.0511L9.09112 19.2828V21.8531H4.92773ZM22.5266 24.407H21.1331C20.4787 24.407 19.8786 24.0772 19.5276 23.5248L15.897 17.8094H14.0189V16.2869H15.614C16.2684 16.2869 16.8686 16.6167 17.2195 17.1691L20.8501 22.8845H22.5267L22.5266 24.407Z" fill="#334DCF"/>
</svg>
