<svg width="39" height="39" viewBox="0 0 39 39" fill="none" xmlns="http://www.w3.org/2000/svg">
<path d="M33.7061 2.01855C33.5232 2.19375 33.5156 2.23945 33.5156 3.2373V4.26562H32.4873C31.4895 4.26562 31.4437 4.27324 31.2686 4.45605C31.1467 4.57031 31.0781 4.73027 31.0781 4.875C31.0781 5.01973 31.1467 5.17969 31.2686 5.29395C31.4437 5.47676 31.4895 5.48438 32.4873 5.48438H33.5156V6.5127C33.5156 7.51055 33.5232 7.55625 33.7061 7.73145C33.8203 7.85332 33.9803 7.92188 34.125 7.92188C34.2697 7.92188 34.4297 7.85332 34.5439 7.73145C34.7268 7.55625 34.7344 7.51055 34.7344 6.5127V5.48438H35.7627C36.7605 5.48438 36.8062 5.47676 36.9814 5.29395C37.2328 5.0502 37.2328 4.6998 36.9814 4.45605C36.8062 4.27324 36.7605 4.26562 35.7627 4.26562H34.7344V3.2373C34.7344 2.23945 34.7268 2.19375 34.5439 2.01855C34.4297 1.89668 34.2697 1.82812 34.125 1.82812C33.9803 1.82812 33.8203 1.89668 33.7061 2.01855Z" fill="#334DCF"/>
<path d="M18.9008 6.21897C16.9736 6.73694 15.7777 8.74026 16.2652 10.6293C16.7756 12.5793 18.7713 13.7905 20.6832 13.2953C22.6332 12.785 23.8443 10.7893 23.3492 8.89261C22.8388 6.91976 20.8127 5.70101 18.9008 6.21897ZM20.9574 7.62815C21.4678 7.90237 21.7039 8.14612 22.001 8.71741C22.1685 9.04495 22.199 9.20491 22.199 9.75335C22.2066 10.3475 22.1838 10.4389 21.9476 10.8807C21.6582 11.4139 21.4144 11.6424 20.8431 11.9471C20.5156 12.1147 20.3556 12.1451 19.8072 12.1451C19.2588 12.1451 19.0988 12.1147 18.7713 11.9471C18.2 11.6424 17.9562 11.4139 17.6668 10.8807C17.4306 10.4389 17.4078 10.3475 17.4154 9.75335C17.4154 8.99163 17.5982 8.5346 18.0933 8.03948C18.8551 7.27776 19.99 7.1178 20.9574 7.62815Z" fill="#334DCF"/>
<path d="M10.9702 8.04691C9.3554 8.48109 8.27376 10.1492 8.54036 11.8098C8.70794 12.8838 9.40111 13.7979 10.4294 14.3082C10.9245 14.552 11.0693 14.5901 11.6863 14.6129C12.7603 14.6586 13.5601 14.3387 14.2913 13.577C15.5025 12.3125 15.4949 10.3168 14.2761 8.99905C13.4306 8.08499 12.1738 7.72698 10.9702 8.04691ZM12.7755 9.36468C13.8495 9.9055 14.2761 11.1547 13.7581 12.2135C12.9812 13.8131 10.7113 13.8131 9.93431 12.2135C9.38587 11.1014 9.91907 9.75316 11.0693 9.29612C11.5796 9.09808 12.3109 9.12093 12.7755 9.36468Z" fill="#334DCF"/>
<path d="M26.9128 8.03906C26.2882 8.20664 25.9073 8.44277 25.3969 8.94551C23.744 10.6061 24.2239 13.2873 26.3567 14.3156C26.9051 14.5822 26.9585 14.5898 27.7659 14.5898C28.5505 14.5898 28.6342 14.5746 29.1217 14.3461C30.5005 13.691 31.285 12.2742 31.0794 10.8193C30.9346 9.82148 30.1882 8.74746 29.3198 8.29805C28.6038 7.94004 27.6669 7.84102 26.9128 8.03906ZM28.52 9.2959C29.6854 9.7377 30.2262 11.0936 29.6778 12.2133C28.9466 13.7139 26.8594 13.8357 25.9682 12.4342C24.8714 10.6975 26.5928 8.57988 28.52 9.2959Z" fill="#334DCF"/>
<path d="M15.8824 14.1089C14.7094 14.3298 13.4906 15.282 12.9498 16.4093C12.5156 17.3082 12.4775 17.6585 12.508 20.6064L12.5309 23.1962L12.7899 23.6761C13.2393 24.5064 13.8943 24.9025 14.9074 24.971L15.5397 25.0091V31.2095V37.4099L15.7301 37.5927C15.9738 37.8441 16.3242 37.8441 16.568 37.5927L16.7584 37.4099V31.1943V24.9863H19.8053H22.8522V31.1943V37.4099L23.0426 37.5927C23.2863 37.8441 23.6367 37.8441 23.8805 37.5927L24.0709 37.4099V31.2095V25.0091L24.7108 24.971C25.244 24.933 25.4268 24.8873 25.8152 24.6816C26.3408 24.3998 26.5693 24.1636 26.874 23.5847L27.0797 23.1962L27.1025 20.6064C27.133 17.6585 27.0949 17.3082 26.6608 16.4093C26.0971 15.2439 24.9012 14.3222 23.6596 14.1013C23.0959 13.9947 16.4233 14.0023 15.8824 14.1089ZM24.1623 15.5562C24.8555 15.899 25.282 16.3408 25.6172 17.0492L25.8609 17.5595V20.2789C25.8609 22.8992 25.8533 22.9982 25.701 23.2039C25.3125 23.7218 25.3049 23.7294 23.294 23.7523L21.4658 23.7751L21.5344 23.5238C21.6106 23.2039 21.6106 22.5031 21.5344 22.1832L21.4658 21.9394H22.5856C23.6672 21.9394 23.7053 21.9318 23.8805 21.749C24.0633 21.5738 24.0709 21.5357 24.0709 20.416C24.0709 19.2962 24.0633 19.2582 23.8805 19.083C23.7662 18.9611 23.6063 18.8925 23.4615 18.8925C23.3168 18.8925 23.1568 18.9611 23.0426 19.083C22.8674 19.2505 22.8522 19.3267 22.8522 19.997V20.7207H19.8053H16.7584V19.997C16.7584 19.3267 16.7432 19.2505 16.568 19.083C16.4537 18.9611 16.2938 18.8925 16.149 18.8925C16.0043 18.8925 15.8443 18.9611 15.7301 19.083C15.5473 19.2582 15.5397 19.2962 15.5397 20.4007C15.5397 22.0308 15.334 21.8937 17.8553 21.9394L19.8815 21.9775L20.1252 22.2289C20.3385 22.4421 20.3766 22.5259 20.3766 22.8535C20.3766 23.1582 20.3385 23.2648 20.1557 23.4552C20.0262 23.5847 19.8738 23.6914 19.8053 23.6914C19.5844 23.6914 19.2797 23.2876 19.2035 22.8916C19.0817 22.2593 18.5637 22.0308 18.1524 22.4421C17.9772 22.6173 17.9619 22.6783 18 23.0287C18.0305 23.2496 18.0686 23.5009 18.099 23.6L18.1524 23.7751L16.3166 23.7523C14.2981 23.7294 14.2981 23.7294 13.9096 23.2039C13.7572 22.9982 13.7496 22.8992 13.7496 20.2789V17.5595L13.9934 17.0492C14.1229 16.7673 14.3742 16.3865 14.5418 16.2037C14.877 15.838 15.5701 15.4343 16.0424 15.3201C16.21 15.282 17.9238 15.2515 19.9652 15.2591L23.5834 15.2744L24.1623 15.5562Z" fill="#334DCF"/>
<path d="M8.45443 15.1389C7.09095 15.3674 5.89505 16.3729 5.39232 17.7211C5.22474 18.1553 5.22474 18.2695 5.19427 21.7354C5.17142 25.7191 5.17904 25.8029 5.67415 26.458C6.02454 26.9227 6.70247 27.2578 7.41087 27.3264L7.92122 27.3721V32.3156C7.92122 35.9262 7.94408 37.3049 8.01263 37.4268C8.21829 37.8229 8.64486 37.899 8.94954 37.5943L9.13997 37.4115V28.0957C9.13236 20.5699 9.11712 18.757 9.03333 18.6504C8.88861 18.4523 8.56107 18.3533 8.34779 18.4371C7.91361 18.5971 7.92122 18.5285 7.92122 22.5047V26.1533L7.48704 26.1C6.97669 26.0467 6.71771 25.8867 6.52728 25.5135C6.4054 25.2773 6.39779 24.9803 6.41302 21.7887L6.43587 18.3229L6.65677 17.8734C6.93861 17.2945 7.38802 16.8451 7.96693 16.5633C8.40872 16.3424 8.43919 16.3424 10.0007 16.3043C11.5622 16.2662 11.5927 16.2662 11.7374 16.0834C11.9355 15.8397 11.9202 15.4969 11.6917 15.276C11.5089 15.0856 11.5013 15.0856 10.0769 15.0932C9.29232 15.1008 8.56107 15.1236 8.45443 15.1389Z" fill="#334DCF"/>
<path d="M27.9201 15.2684C27.684 15.4969 27.6611 15.832 27.8668 16.0834C28.0115 16.2662 28.042 16.2662 29.6035 16.3043C31.165 16.3424 31.1955 16.3424 31.6373 16.5633C32.2162 16.8451 32.6656 17.2945 32.9475 17.8734L33.1684 18.3229L33.1912 21.7887C33.2065 24.9803 33.1988 25.2773 33.077 25.5135C32.8865 25.8867 32.6275 26.0467 32.1248 26.1L31.683 26.1533V22.5047C31.683 18.5285 31.6906 18.5971 31.2565 18.4371C31.0432 18.3533 30.7156 18.4523 30.5709 18.6504C30.4871 18.757 30.4719 20.5699 30.4643 28.0957V37.4115L30.6547 37.5943C30.9594 37.899 31.3859 37.8229 31.5916 37.4268C31.6602 37.3049 31.683 35.9262 31.683 32.3156V27.3721L32.1934 27.3264C32.9018 27.2578 33.5797 26.9227 33.9301 26.458C34.4252 25.8029 34.4328 25.7191 34.41 21.7354C34.3795 18.2848 34.3795 18.1553 34.2119 17.7211C33.7854 16.5861 32.9094 15.7102 31.7897 15.2988C31.3936 15.1541 31.1422 15.1313 29.7254 15.1008L28.1106 15.0703L27.9201 15.2684Z" fill="#334DCF"/>
<path d="M11.441 26.8358L11.2734 27.011V32.2364V37.4694L11.4715 37.6217C11.7381 37.835 11.9818 37.8198 12.2408 37.5989L12.4541 37.4161V32.2364V27.0567L12.2713 26.8586C12.0275 26.5997 11.6695 26.592 11.441 26.8358Z" fill="#334DCF"/>
<path d="M27.3391 26.8586L27.1562 27.0567V32.2364V37.4161L27.3695 37.5989C27.6285 37.8198 27.8723 37.835 28.1389 37.6217L28.3369 37.4694V32.2288V26.9881L28.1617 26.8282C27.918 26.5997 27.5752 26.6073 27.3391 26.8586Z" fill="#334DCF"/>
<path d="M19.3857 27.0048L19.1953 27.1876V32.2988V37.4099L19.3857 37.5927C19.6295 37.8441 19.9799 37.8441 20.2236 37.5927L20.4141 37.4099V32.2988V27.1876L20.2236 27.0048C20.1094 26.883 19.9494 26.8144 19.8047 26.8144C19.66 26.8144 19.5 26.883 19.3857 27.0048Z" fill="#334DCF"/>
</svg>
