<svg width="27" height="27" viewBox="0 0 27 27" fill="none" xmlns="http://www.w3.org/2000/svg">
<path d="M23.055 17.7465C22.9369 18.0997 22.6084 18.3236 22.254 18.3236C22.1663 18.3236 22.0763 18.3101 21.9874 18.2797L19.6013 17.4843C19.1592 17.337 18.9207 16.8588 19.0669 16.4167C19.2154 15.9757 19.6879 15.735 20.1345 15.8835L22.5207 16.6788C22.9628 16.8262 23.2013 17.3043 23.055 17.7465ZM17.2748 19.5566C17.0655 19.1403 16.5593 18.9716 16.143 19.1797C15.7257 19.389 15.5569 19.8952 15.765 20.3115L16.89 22.5615C17.0385 22.8573 17.3355 23.0283 17.646 23.0283C17.772 23.0283 17.9014 23.0002 18.0218 22.9395C18.4392 22.7302 18.6079 22.224 18.3998 21.8077L17.2748 19.5566ZM10.3279 4.48384C10.1794 4.04284 9.70579 3.80096 9.26029 3.95059C8.81817 4.09796 8.57967 4.57609 8.72592 5.01821L9.52129 7.40546C9.63942 7.75871 9.96792 7.98258 10.3223 7.98258C10.41 7.98258 10.5 7.96908 10.5889 7.93871C11.031 7.79133 11.2695 7.31321 11.1233 6.87108L10.3279 4.48384ZM7.44792 9.72971L5.19792 8.60471C4.78167 8.39658 4.27654 8.56646 4.06617 8.98159C3.85692 9.39896 4.02679 9.90521 4.44417 10.1133L6.69417 11.2383C6.81454 11.2991 6.94392 11.3272 7.06992 11.3272C7.37929 11.3272 7.67742 11.1562 7.82592 10.8603C8.03517 10.443 7.86529 9.93671 7.44792 9.72858V9.72971Z" fill="#334DCF"/>
<path d="M15.6896 11.3121C16.4861 12.1086 16.926 13.1684 16.926 14.2945C16.926 15.4206 16.4861 16.4804 15.6896 17.278L10.9173 22.0514C10.095 22.8737 9.01497 23.2844 7.93384 23.2844C6.85272 23.2844 5.77384 22.8737 4.95147 22.0514C3.30784 20.4066 3.30784 17.7302 4.95147 16.0855L7.33759 13.6982C7.66722 13.3686 8.20159 13.3686 8.53122 13.6982C8.86084 14.0279 8.86084 14.5622 8.53122 14.8919L6.14509 17.2791C5.15847 18.2657 5.15847 19.8722 6.14509 20.8589C7.13172 21.8466 8.73934 21.8444 9.72597 20.8589L14.4982 16.0855C14.9763 15.6074 15.2396 14.9717 15.2396 14.2956C15.2396 13.6195 14.9763 12.9839 14.4982 12.5057C14.1686 12.1772 14.1686 11.6417 14.4982 11.3121C14.8278 10.9825 15.3622 10.9825 15.6918 11.3121H15.6896ZM22.0537 4.94798C20.4067 3.30323 17.7315 3.30436 16.0867 4.94798L11.3145 9.72136C10.518 10.5179 10.0781 11.5776 10.0781 12.7049C10.0781 13.8321 10.518 14.8907 11.3145 15.6872C11.4787 15.8515 11.6947 15.9347 11.9107 15.9347C12.1267 15.9347 12.3427 15.8526 12.507 15.6872C12.8366 15.3576 12.8366 14.8232 12.507 14.4936C12.0288 14.0155 11.7656 13.3799 11.7656 12.7037C11.7656 12.0276 12.0288 11.392 12.507 10.9139L17.2792 6.14048C18.2647 5.15498 19.8723 5.15273 20.8601 6.14048C21.8467 7.12711 21.8467 8.73361 20.8601 9.72023L18.474 12.1075C18.1443 12.4371 18.1443 12.9715 18.474 13.3011C18.8036 13.6307 19.338 13.6307 19.6676 13.3011L22.0537 10.9139C23.6973 9.26911 23.6973 6.59273 22.0537 4.94798Z" fill="#334DCF"/>
</svg>
