<svg width="27" height="27" viewBox="0 0 27 27" fill="none" xmlns="http://www.w3.org/2000/svg">
<mask id="mask0_8286_53135" style="mask-type:luminance" maskUnits="userSpaceOnUse" x="2" y="2" width="23" height="23">
<path d="M2.28125 2.33203H24.1133V24.1641H2.28125V2.33203Z" fill="white"/>
</mask>
<g mask="url(#mask0_8286_53135)">
<path d="M2.92188 23.5234H23.4747" stroke="#334DCF" stroke-width="1.58203" stroke-miterlimit="10" stroke-linecap="round" stroke-linejoin="round"/>
<path d="M4.20312 23.5234V13.247H11.9211V23.5234" stroke="#334DCF" stroke-width="1.58203" stroke-miterlimit="10" stroke-linecap="round" stroke-linejoin="round"/>
</g>
<path d="M6.75781 20.9219H9.35889" stroke="#334DCF" stroke-width="1.58203" stroke-miterlimit="10" stroke-linecap="round" stroke-linejoin="round"/>
<mask id="mask1_8286_53135" style="mask-type:luminance" maskUnits="userSpaceOnUse" x="2" y="2" width="23" height="23">
<path d="M2.28125 2.33203H24.1133V24.1641H2.28125V2.33203Z" fill="white"/>
</mask>
<g mask="url(#mask1_8286_53135)">
<path d="M19.6013 18.3634C19.6013 19.7764 18.4558 20.9219 17.0428 20.9219C15.6298 20.9219 14.4844 19.7764 14.4844 18.3634C14.4844 16.9504 15.6298 14.5258 17.0428 14.5258C18.4558 14.5258 19.6013 16.9504 19.6013 18.3634Z" stroke="#334DCF" stroke-width="1.3" stroke-miterlimit="10" stroke-linecap="round" stroke-linejoin="round"/>
<path d="M17.0391 23.5234V20.9224" stroke="#334DCF" stroke-width="1.3" stroke-miterlimit="10" stroke-linecap="round" stroke-linejoin="round"/>
<path d="M22.202 23.5234V5.52907L9.36719 2.97063V13.247" stroke="#334DCF" stroke-width="1.3" stroke-miterlimit="10" stroke-linecap="round" stroke-linejoin="round"/>
<path d="M11.9219 6.85156H14.4803" stroke="#334DCF" stroke-width="1.3" stroke-miterlimit="10" stroke-linecap="round" stroke-linejoin="round"/>
<path d="M11.9219 9.41016H14.4803" stroke="#334DCF" stroke-width="1.3" stroke-miterlimit="10" stroke-linecap="round" stroke-linejoin="round"/>
<path d="M17.0391 9.41016H19.5975" stroke="#334DCF" stroke-width="1.3" stroke-miterlimit="10" stroke-linecap="round" stroke-linejoin="round"/>
<path d="M17.0391 11.9688H19.5975" stroke="#334DCF" stroke-width="1.3" stroke-miterlimit="10" stroke-linecap="round" stroke-linejoin="round"/>
<path d="M5.48438 8.13312V13.25" stroke="#334DCF" stroke-width="1.3" stroke-miterlimit="10" stroke-linecap="round" stroke-linejoin="round"/>
</g>
</svg>
