<svg width="60" height="60" viewBox="0 0 60 60" fill="none" xmlns="http://www.w3.org/2000/svg">
<mask id="path-1-outside-1_27_34" maskUnits="userSpaceOnUse" x="8" y="0" width="45" height="60" fill="black">
<rect fill="white" x="8" width="45" height="60"/>
<path d="M45.4409 2.25825V1.00005H41.6663C39.7265 0.993557 37.8389 1.62764 36.2964 2.80386C34.7539 3.98007 33.6428 5.63262 33.1357 7.50496C31.3559 7.28311 29.5555 7.28311 27.7758 7.50496V2.25825C27.7758 1.92456 27.6432 1.60453 27.4072 1.36857C27.1713 1.13261 26.8513 1.00005 26.5176 1.00005C26.1839 1.00005 25.8638 1.13261 25.6279 1.36857C25.3919 1.60453 25.2594 1.92456 25.2594 2.25825V19.9612C25.2594 20.9303 24.878 21.8604 24.1974 22.5503C23.5169 23.2403 22.5921 23.6345 21.6231 23.6477H20.2769L21.3589 53.8446C21.3709 54.1641 21.3179 54.4826 21.2033 54.7811C21.0887 55.0795 20.9148 55.3516 20.6921 55.5809C20.235 56.0335 19.6178 56.2874 18.9746 56.2874C18.3314 56.2874 17.7142 56.0335 17.2572 55.5809C17.0435 55.3475 16.8788 55.0735 16.7729 54.7753C16.667 54.477 16.622 54.1606 16.6407 53.8446L17.7605 23.6477H16.5023C16.0108 23.6595 15.5219 23.5728 15.0644 23.3928C14.6069 23.2128 14.1901 22.9431 13.8384 22.5996C13.4866 22.2561 13.2072 21.8457 13.0164 21.3926C12.8257 20.9395 12.7275 20.4528 12.7276 19.9612V2.25825C12.7276 1.92456 12.5951 1.60453 12.3591 1.36857C12.1232 1.13261 11.8031 1.00005 11.4694 1.00005C11.1357 1.00005 10.8157 1.13261 10.5798 1.36857C10.3438 1.60453 10.2112 1.92456 10.2112 2.25825V19.9612C10.21 20.3838 10.2522 20.8054 10.3371 21.2194V21.2949C8.97754 24.9513 8.64694 28.9105 9.38124 32.7418C10.1155 36.573 11.8866 40.1294 14.5017 43.0241L14.1242 53.8446C14.0906 54.5091 14.1924 55.1734 14.4234 55.7973C14.6545 56.4212 15.0101 56.9916 15.4684 57.4738C15.9268 57.956 16.4785 58.34 17.0899 58.6023C17.7013 58.8647 18.3596 59 19.025 59C19.6903 59 20.3486 58.8647 20.96 58.6023C21.5714 58.34 22.1231 57.956 22.5815 57.4738C23.0398 56.9916 23.3954 56.4212 23.6265 55.7973C23.8575 55.1734 23.9593 54.5091 23.9257 53.8446L23.7495 49.0509C27.8265 50.3898 32.2138 50.46 36.3315 49.2522L35.8534 53.3665C35.7808 54.0376 35.8412 54.7164 36.0312 55.3641C36.2211 56.0118 36.537 56.6156 36.9606 57.1411C37.3524 57.6331 37.8398 58.0406 38.3934 58.339C38.947 58.6374 39.5553 58.8206 40.1817 58.8774H40.6094C41.2427 58.8807 41.8704 58.7589 42.4565 58.5188C43.0425 58.2788 43.5753 57.9253 44.0243 57.4786C44.4733 57.032 44.8296 56.501 45.0727 55.9162C45.3158 55.3314 45.441 54.7044 45.4409 54.0711V43.779C47.4313 41.8005 49.0108 39.448 50.0887 36.8568C51.1665 34.2657 51.7214 31.4869 51.7214 28.6805C51.7214 25.8741 51.1665 23.0954 50.0887 20.5042C49.0108 17.9131 47.4313 15.5606 45.4409 13.5821V2.25825ZM14.6401 39.1236C13.1919 36.9709 12.2089 34.5396 11.7539 31.9853C11.2989 29.431 11.382 26.8098 11.9979 24.2894C12.841 25.1606 13.9218 25.7644 15.1056 26.0257L14.6401 39.1236ZM36.6335 46.4338C32.4241 47.9184 27.8257 47.8694 23.6489 46.2954L22.9191 26.0257C24.3065 25.727 25.5498 24.9624 26.4425 23.8591C27.3352 22.7559 27.8234 21.3804 27.8261 19.9612V9.99621C29.4963 9.77377 31.1887 9.77377 32.8589 9.99621V31.1969C32.8554 32.8048 33.292 34.3829 34.1215 35.7603C34.951 37.1376 36.1418 38.2616 37.5646 39.0104L36.6335 46.4338ZM42.9245 54.0711C42.9261 54.3918 42.8603 54.7094 42.7313 55.0031C42.6023 55.2968 42.4131 55.5601 42.1759 55.776C41.9386 55.9919 41.6587 56.1555 41.3541 56.2563C41.0496 56.3571 40.7273 56.3927 40.4081 56.361C40.1184 56.3316 39.8375 56.244 39.5824 56.1035C39.3273 55.963 39.1032 55.7724 38.9234 55.5432C38.7081 55.2751 38.5482 54.9668 38.4532 54.6363C38.3581 54.3058 38.3298 53.9597 38.3698 53.6181L39.0493 47.8304C39.1214 47.6422 39.1473 47.4394 39.1248 47.239L40.0684 39.2746C40.1332 38.7776 40.048 38.2725 39.8238 37.8241C39.5997 37.3758 39.2467 37.0046 38.8102 36.7582C37.7831 36.2349 36.9195 35.4394 36.3138 34.4587C35.708 33.478 35.3834 32.3496 35.3753 31.1969V9.80748C35.3753 8.13899 36.0381 6.53885 37.2179 5.35905C38.3977 4.17926 39.9979 3.51646 41.6663 3.51646H42.9245V54.0711ZM49.2156 28.6805C49.2321 32.7668 47.9059 36.7453 45.4409 40.0044V17.3567C47.9059 20.6158 49.2321 24.5943 49.2156 28.6805Z"/>
</mask>
<path d="M45.4409 2.25825V1.00005H41.6663C39.7265 0.993557 37.8389 1.62764 36.2964 2.80386C34.7539 3.98007 33.6428 5.63262 33.1357 7.50496C31.3559 7.28311 29.5555 7.28311 27.7758 7.50496V2.25825C27.7758 1.92456 27.6432 1.60453 27.4072 1.36857C27.1713 1.13261 26.8513 1.00005 26.5176 1.00005C26.1839 1.00005 25.8638 1.13261 25.6279 1.36857C25.3919 1.60453 25.2594 1.92456 25.2594 2.25825V19.9612C25.2594 20.9303 24.878 21.8604 24.1974 22.5503C23.5169 23.2403 22.5921 23.6345 21.6231 23.6477H20.2769L21.3589 53.8446C21.3709 54.1641 21.3179 54.4826 21.2033 54.7811C21.0887 55.0795 20.9148 55.3516 20.6921 55.5809C20.235 56.0335 19.6178 56.2874 18.9746 56.2874C18.3314 56.2874 17.7142 56.0335 17.2572 55.5809C17.0435 55.3475 16.8788 55.0735 16.7729 54.7753C16.667 54.477 16.622 54.1606 16.6407 53.8446L17.7605 23.6477H16.5023C16.0108 23.6595 15.5219 23.5728 15.0644 23.3928C14.6069 23.2128 14.1901 22.9431 13.8384 22.5996C13.4866 22.2561 13.2072 21.8457 13.0164 21.3926C12.8257 20.9395 12.7275 20.4528 12.7276 19.9612V2.25825C12.7276 1.92456 12.5951 1.60453 12.3591 1.36857C12.1232 1.13261 11.8031 1.00005 11.4694 1.00005C11.1357 1.00005 10.8157 1.13261 10.5798 1.36857C10.3438 1.60453 10.2112 1.92456 10.2112 2.25825V19.9612C10.21 20.3838 10.2522 20.8054 10.3371 21.2194V21.2949C8.97754 24.9513 8.64694 28.9105 9.38124 32.7418C10.1155 36.573 11.8866 40.1294 14.5017 43.0241L14.1242 53.8446C14.0906 54.5091 14.1924 55.1734 14.4234 55.7973C14.6545 56.4212 15.0101 56.9916 15.4684 57.4738C15.9268 57.956 16.4785 58.34 17.0899 58.6023C17.7013 58.8647 18.3596 59 19.025 59C19.6903 59 20.3486 58.8647 20.96 58.6023C21.5714 58.34 22.1231 57.956 22.5815 57.4738C23.0398 56.9916 23.3954 56.4212 23.6265 55.7973C23.8575 55.1734 23.9593 54.5091 23.9257 53.8446L23.7495 49.0509C27.8265 50.3898 32.2138 50.46 36.3315 49.2522L35.8534 53.3665C35.7808 54.0376 35.8412 54.7164 36.0312 55.3641C36.2211 56.0118 36.537 56.6156 36.9606 57.1411C37.3524 57.6331 37.8398 58.0406 38.3934 58.339C38.947 58.6374 39.5553 58.8206 40.1817 58.8774H40.6094C41.2427 58.8807 41.8704 58.7589 42.4565 58.5188C43.0425 58.2788 43.5753 57.9253 44.0243 57.4786C44.4733 57.032 44.8296 56.501 45.0727 55.9162C45.3158 55.3314 45.441 54.7044 45.4409 54.0711V43.779C47.4313 41.8005 49.0108 39.448 50.0887 36.8568C51.1665 34.2657 51.7214 31.4869 51.7214 28.6805C51.7214 25.8741 51.1665 23.0954 50.0887 20.5042C49.0108 17.9131 47.4313 15.5606 45.4409 13.5821V2.25825ZM14.6401 39.1236C13.1919 36.9709 12.2089 34.5396 11.7539 31.9853C11.2989 29.431 11.382 26.8098 11.9979 24.2894C12.841 25.1606 13.9218 25.7644 15.1056 26.0257L14.6401 39.1236ZM36.6335 46.4338C32.4241 47.9184 27.8257 47.8694 23.6489 46.2954L22.9191 26.0257C24.3065 25.727 25.5498 24.9624 26.4425 23.8591C27.3352 22.7559 27.8234 21.3804 27.8261 19.9612V9.99621C29.4963 9.77377 31.1887 9.77377 32.8589 9.99621V31.1969C32.8554 32.8048 33.292 34.3829 34.1215 35.7603C34.951 37.1376 36.1418 38.2616 37.5646 39.0104L36.6335 46.4338ZM42.9245 54.0711C42.9261 54.3918 42.8603 54.7094 42.7313 55.0031C42.6023 55.2968 42.4131 55.5601 42.1759 55.776C41.9386 55.9919 41.6587 56.1555 41.3541 56.2563C41.0496 56.3571 40.7273 56.3927 40.4081 56.361C40.1184 56.3316 39.8375 56.244 39.5824 56.1035C39.3273 55.963 39.1032 55.7724 38.9234 55.5432C38.7081 55.2751 38.5482 54.9668 38.4532 54.6363C38.3581 54.3058 38.3298 53.9597 38.3698 53.6181L39.0493 47.8304C39.1214 47.6422 39.1473 47.4394 39.1248 47.239L40.0684 39.2746C40.1332 38.7776 40.048 38.2725 39.8238 37.8241C39.5997 37.3758 39.2467 37.0046 38.8102 36.7582C37.7831 36.2349 36.9195 35.4394 36.3138 34.4587C35.708 33.478 35.3834 32.3496 35.3753 31.1969V9.80748C35.3753 8.13899 36.0381 6.53885 37.2179 5.35905C38.3977 4.17926 39.9979 3.51646 41.6663 3.51646H42.9245V54.0711ZM49.2156 28.6805C49.2321 32.7668 47.9059 36.7453 45.4409 40.0044V17.3567C47.9059 20.6158 49.2321 24.5943 49.2156 28.6805Z" fill="white"/>
<path d="M45.4409 2.25825V1.00005H41.6663C39.7265 0.993557 37.8389 1.62764 36.2964 2.80386C34.7539 3.98007 33.6428 5.63262 33.1357 7.50496C31.3559 7.28311 29.5555 7.28311 27.7758 7.50496V2.25825C27.7758 1.92456 27.6432 1.60453 27.4072 1.36857C27.1713 1.13261 26.8513 1.00005 26.5176 1.00005C26.1839 1.00005 25.8638 1.13261 25.6279 1.36857C25.3919 1.60453 25.2594 1.92456 25.2594 2.25825V19.9612C25.2594 20.9303 24.878 21.8604 24.1974 22.5503C23.5169 23.2403 22.5921 23.6345 21.6231 23.6477H20.2769L21.3589 53.8446C21.3709 54.1641 21.3179 54.4826 21.2033 54.7811C21.0887 55.0795 20.9148 55.3516 20.6921 55.5809C20.235 56.0335 19.6178 56.2874 18.9746 56.2874C18.3314 56.2874 17.7142 56.0335 17.2572 55.5809C17.0435 55.3475 16.8788 55.0735 16.7729 54.7753C16.667 54.477 16.622 54.1606 16.6407 53.8446L17.7605 23.6477H16.5023C16.0108 23.6595 15.5219 23.5728 15.0644 23.3928C14.6069 23.2128 14.1901 22.9431 13.8384 22.5996C13.4866 22.2561 13.2072 21.8457 13.0164 21.3926C12.8257 20.9395 12.7275 20.4528 12.7276 19.9612V2.25825C12.7276 1.92456 12.5951 1.60453 12.3591 1.36857C12.1232 1.13261 11.8031 1.00005 11.4694 1.00005C11.1357 1.00005 10.8157 1.13261 10.5798 1.36857C10.3438 1.60453 10.2112 1.92456 10.2112 2.25825V19.9612C10.21 20.3838 10.2522 20.8054 10.3371 21.2194V21.2949C8.97754 24.9513 8.64694 28.9105 9.38124 32.7418C10.1155 36.573 11.8866 40.1294 14.5017 43.0241L14.1242 53.8446C14.0906 54.5091 14.1924 55.1734 14.4234 55.7973C14.6545 56.4212 15.0101 56.9916 15.4684 57.4738C15.9268 57.956 16.4785 58.34 17.0899 58.6023C17.7013 58.8647 18.3596 59 19.025 59C19.6903 59 20.3486 58.8647 20.96 58.6023C21.5714 58.34 22.1231 57.956 22.5815 57.4738C23.0398 56.9916 23.3954 56.4212 23.6265 55.7973C23.8575 55.1734 23.9593 54.5091 23.9257 53.8446L23.7495 49.0509C27.8265 50.3898 32.2138 50.46 36.3315 49.2522L35.8534 53.3665C35.7808 54.0376 35.8412 54.7164 36.0312 55.3641C36.2211 56.0118 36.537 56.6156 36.9606 57.1411C37.3524 57.6331 37.8398 58.0406 38.3934 58.339C38.947 58.6374 39.5553 58.8206 40.1817 58.8774H40.6094C41.2427 58.8807 41.8704 58.7589 42.4565 58.5188C43.0425 58.2788 43.5753 57.9253 44.0243 57.4786C44.4733 57.032 44.8296 56.501 45.0727 55.9162C45.3158 55.3314 45.441 54.7044 45.4409 54.0711V43.779C47.4313 41.8005 49.0108 39.448 50.0887 36.8568C51.1665 34.2657 51.7214 31.4869 51.7214 28.6805C51.7214 25.8741 51.1665 23.0954 50.0887 20.5042C49.0108 17.9131 47.4313 15.5606 45.4409 13.5821V2.25825ZM14.6401 39.1236C13.1919 36.9709 12.2089 34.5396 11.7539 31.9853C11.2989 29.431 11.382 26.8098 11.9979 24.2894C12.841 25.1606 13.9218 25.7644 15.1056 26.0257L14.6401 39.1236ZM36.6335 46.4338C32.4241 47.9184 27.8257 47.8694 23.6489 46.2954L22.9191 26.0257C24.3065 25.727 25.5498 24.9624 26.4425 23.8591C27.3352 22.7559 27.8234 21.3804 27.8261 19.9612V9.99621C29.4963 9.77377 31.1887 9.77377 32.8589 9.99621V31.1969C32.8554 32.8048 33.292 34.3829 34.1215 35.7603C34.951 37.1376 36.1418 38.2616 37.5646 39.0104L36.6335 46.4338ZM42.9245 54.0711C42.9261 54.3918 42.8603 54.7094 42.7313 55.0031C42.6023 55.2968 42.4131 55.5601 42.1759 55.776C41.9386 55.9919 41.6587 56.1555 41.3541 56.2563C41.0496 56.3571 40.7273 56.3927 40.4081 56.361C40.1184 56.3316 39.8375 56.244 39.5824 56.1035C39.3273 55.963 39.1032 55.7724 38.9234 55.5432C38.7081 55.2751 38.5482 54.9668 38.4532 54.6363C38.3581 54.3058 38.3298 53.9597 38.3698 53.6181L39.0493 47.8304C39.1214 47.6422 39.1473 47.4394 39.1248 47.239L40.0684 39.2746C40.1332 38.7776 40.048 38.2725 39.8238 37.8241C39.5997 37.3758 39.2467 37.0046 38.8102 36.7582C37.7831 36.2349 36.9195 35.4394 36.3138 34.4587C35.708 33.478 35.3834 32.3496 35.3753 31.1969V9.80748C35.3753 8.13899 36.0381 6.53885 37.2179 5.35905C38.3977 4.17926 39.9979 3.51646 41.6663 3.51646H42.9245V54.0711ZM49.2156 28.6805C49.2321 32.7668 47.9059 36.7453 45.4409 40.0044V17.3567C47.9059 20.6158 49.2321 24.5943 49.2156 28.6805Z" stroke="white" mask="url(#path-1-outside-1_27_34)"/>
<path d="M16.5028 18.8649C16.9028 18.8649 17.2865 18.706 17.5693 18.4231C17.8521 18.1403 18.011 17.7566 18.011 17.3566V2.2582C18.011 1.8582 17.8521 1.47459 17.5693 1.19174C17.2865 0.9089 16.9028 0.75 16.5028 0.75C16.1028 0.75 15.7192 0.9089 15.4364 1.19174C15.1535 1.47459 14.9946 1.8582 14.9946 2.2582V17.3566C14.9946 17.7566 15.1535 18.1403 15.4364 18.4231C15.7192 18.706 16.1028 18.8649 16.5028 18.8649Z" fill="white" stroke="white" stroke-width="0.5"/>
<path d="M21.5348 18.8649C21.9348 18.8649 22.3184 18.706 22.6013 18.4231C22.8841 18.1403 23.043 17.7566 23.043 17.3566V2.2582C23.043 1.8582 22.8841 1.47459 22.6013 1.19174C22.3184 0.9089 21.9348 0.75 21.5348 0.75C21.1348 0.75 20.7512 0.9089 20.4684 1.19174C20.1855 1.47459 20.0266 1.8582 20.0266 2.2582V17.3566C20.0266 17.7566 20.1855 18.1403 20.4684 18.4231C20.7512 18.706 21.1348 18.8649 21.5348 18.8649Z" fill="white" stroke="white" stroke-width="0.5"/>
</svg>
