<svg width="20" height="20" viewBox="0 0 20 20" fill="none" xmlns="http://www.w3.org/2000/svg">
<g id="marker-02">
<g id="Group 1410085031">
<g id="Group 1410085030">
<line id="Line 4" x1="9.45394" y1="9.09193" x2="7.48505" y2="19.4833" stroke="white" stroke-width="0.987654"/>
<line id="Line 5" x1="12.173" y1="18.6723" x2="10.3225" y2="8.90694" stroke="white" stroke-width="0.987654"/>
</g>
<line id="Line 6" x1="14.9658" y1="19.0314" x2="5.11597" y2="19.0314" stroke="white" stroke-width="0.987654"/>
<g id="Group 1410085032">
<path id="Ellipse 1" d="M16.5958 8.52967C16.5958 12.3722 13.4808 15.4873 9.63822 15.4873C5.79564 15.4873 2.68062 12.3722 2.68062 8.52967C2.68062 4.68709 5.79564 1.57207 9.63822 1.57207C13.4808 1.57207 16.5958 4.68709 16.5958 8.52967Z" stroke="white" stroke-width="1.13076"/>
<line id="Line 1" x1="9.96968" y1="1.59991" x2="9.96968" y2="9.04023" stroke="white" stroke-width="1.13076"/>
<line id="Line 3" x1="16.0505" y1="11.8852" x2="3.74755" y2="5.48339" stroke="white" stroke-width="1.13076"/>
<line id="Line 7" x1="15.8846" y1="5.03814" x2="3.90644" y2="12.0289" stroke="white" stroke-width="1.13076"/>
<circle id="Ellipse 2" cx="2.57869" cy="4.75447" r="0.578691" fill="white"/>
<circle id="Ellipse 6" cx="2.87068" cy="12.7244" r="0.578691" fill="white"/>
<circle id="Ellipse 3" cx="9.83162" cy="0.578691" r="0.578691" fill="white"/>
<circle id="Ellipse 4" cx="16.607" cy="4.60838" r="0.578691" fill="white"/>
<circle id="Ellipse 5" cx="16.6715" cy="12.3035" r="0.578691" fill="white"/>
</g>
</g>
</g>
</svg>
