<svg width="40" height="39" viewBox="0 0 40 39" fill="none" xmlns="http://www.w3.org/2000/svg">
<path d="M1.56791 1.75938L1.3688 1.91172V5.78125V9.64317L1.10841 9.93262C0.763786 10.2982 0.656568 10.6486 0.69486 11.1895C0.74081 11.7455 2.77793 16.9404 3.1149 17.3594C3.23744 17.5117 3.53611 17.7326 3.77352 17.8621C4.14112 18.0449 4.30961 18.083 4.73848 18.083C5.22861 18.083 5.32817 18.0525 6.29312 17.5803L7.31934 17.0775L7.37295 17.5346C7.39593 17.7936 7.4189 19.0885 7.4189 20.4215V22.8514L5.33583 25.723L3.26041 28.6023L1.99678 31.6111C0.932269 34.14 0.725494 34.6961 0.69486 35.0998C0.633593 35.9072 1.00885 36.5547 1.71342 36.8746C2.11932 37.0574 2.8392 37.0574 3.2451 36.8746C3.86542 36.6004 4.00327 36.349 5.25924 33.2793L6.43863 30.4152L8.26898 28.0996C9.27988 26.8275 10.1223 25.7078 10.1529 25.6088C10.2525 25.2051 9.60919 24.8014 9.27988 25.068C9.21862 25.1213 8.33025 26.2182 7.31934 27.4979L5.47368 29.8211L4.26366 32.7537C3.59738 34.3686 2.99237 35.732 2.91579 35.7854C2.70135 35.9453 2.45628 35.9758 2.20356 35.8768C1.98147 35.7777 1.75171 35.4654 1.75171 35.2369C1.75171 35.1684 2.31843 33.7744 3.00003 32.1291L4.256 29.1355L6.23951 26.3934C7.33466 24.8852 8.29961 23.5445 8.39917 23.4227L8.56766 23.1941L8.51405 19.576L8.4681 15.9654L8.29195 15.7902C8.1924 15.6912 8.04689 15.615 7.9703 15.615C7.88606 15.615 7.17383 15.9197 6.39268 16.3006C5.51197 16.7195 4.86101 16.9861 4.7155 16.9861C4.43214 16.9861 4.01859 16.7576 3.90371 16.5443C3.85776 16.4605 3.35231 15.2037 2.77793 13.7412C1.6445 10.8619 1.63684 10.8162 2.09634 10.5953C2.54818 10.382 2.61711 10.4811 3.65099 12.9871C4.1641 14.2439 4.64657 15.318 4.7155 15.3637C4.78443 15.417 4.92228 15.4627 5.02183 15.4627C5.18266 15.4627 7.65631 14.4725 8.20005 14.1982C8.58297 14.0002 8.65956 13.5889 8.36854 13.2994C8.16176 13.0938 7.8248 13.1623 6.5918 13.6727C5.94084 13.9469 5.37412 14.1449 5.35114 14.1145C5.32051 14.084 4.93759 13.1775 4.50107 12.1111C3.62035 9.95547 3.43655 9.68125 2.78559 9.50606L2.44097 9.41465V7.94453C2.44097 7.13711 2.44863 6.47441 2.46394 6.47441C2.58648 6.47441 6.48458 4.83672 6.5918 4.74532C6.79092 4.57012 6.76794 4.17403 6.56117 3.9836C6.34673 3.80078 2.04273 1.59941 1.88191 1.59941C1.82064 1.59941 1.68279 1.66797 1.56791 1.75938ZM3.65865 3.70176C4.27132 4.02168 4.78443 4.2959 4.79974 4.30352C4.82272 4.32637 2.90047 5.11856 2.60945 5.20996C2.44097 5.26328 2.44097 5.26328 2.44097 4.19688C2.44097 3.60274 2.46394 3.12285 2.49458 3.12285C2.51755 3.12285 3.04598 3.38184 3.65865 3.70176Z" fill="#FAD600"/>
<path d="M10.0215 7.44863C9.43184 7.64668 9.27867 7.73809 8.81151 8.17988C7.20326 9.6957 7.60915 12.2855 9.61564 13.2682C10.1058 13.5043 10.1747 13.5195 10.9788 13.5195C11.7753 13.5195 11.8519 13.5043 12.3267 13.2758C14.6855 12.1256 14.7008 8.79688 12.342 7.63906C11.8366 7.3877 11.6911 7.35723 11.109 7.33437C10.6189 7.31914 10.3279 7.34961 10.0215 7.44863ZM11.7523 8.56836C12.097 8.70547 12.6101 9.18535 12.8015 9.55098C13.0313 9.99277 13.0313 10.8764 12.8015 11.3182C12.2425 12.3617 11.0018 12.7654 10.0139 12.2094C9.10253 11.699 8.72727 10.724 9.0719 9.72617C9.20209 9.34531 9.64627 8.83496 10.0215 8.64453C10.5117 8.39316 11.2316 8.3627 11.7523 8.56836Z" fill="#FAD600"/>
<path d="M24.0614 7.4615C21.8252 8.19275 21.1819 11.0187 22.8667 12.6945C24.0461 13.8676 26.1445 13.8371 27.3086 12.626C27.4388 12.4888 27.6456 12.2146 27.7681 12.0242L27.9902 11.6662L28.1663 12.0013C28.4114 12.4584 29.0777 13.0678 29.6061 13.3115C30.0043 13.4943 30.1422 13.5172 30.8927 13.5172C31.6892 13.5172 31.7658 13.5019 32.2329 13.2734C33.4889 12.6564 34.2471 11.2472 34.0097 9.96756C33.7799 8.72596 32.9451 7.77381 31.7811 7.43104C30.9233 7.17967 29.8588 7.34725 29.1313 7.84236C28.733 8.10896 28.2812 8.60408 28.1204 8.94686L27.9978 9.19822L27.7145 8.77166C27.3545 8.21561 26.964 7.88045 26.3513 7.591C25.6927 7.28631 24.766 7.23299 24.0614 7.4615ZM25.9377 8.62693C26.5581 8.90877 27.1018 9.75428 27.1018 10.4322C27.1018 11.2625 26.4279 12.1385 25.6238 12.3746C24.3142 12.7478 23.0429 11.8033 23.0429 10.4551C23.0429 10.1885 23.0965 9.84568 23.1578 9.69334C23.6173 8.60408 24.8579 8.1242 25.9377 8.62693ZM31.7351 8.60408C32.4014 8.89354 32.9222 9.67811 32.9222 10.4017C32.9222 11.4224 32.2636 12.2146 31.2297 12.4279C30.3873 12.6031 29.5065 12.1461 29.1006 11.331C28.2429 9.6324 29.9814 7.83475 31.7351 8.60408Z" fill="#FAD600"/>
<path d="M34.3711 12.0191C34.0417 12.2857 34.126 12.4837 35.5351 14.9288C36.9519 17.3892 37.2736 18.0976 37.3425 18.8898C37.4497 20.1771 36.7528 21.4644 35.4815 22.3175C34.999 22.6374 34.9148 22.7517 34.9148 23.0411C34.9148 23.6277 35.4739 23.6962 36.1784 23.2011C37.2583 22.4318 38.116 21.2511 38.3687 20.1847C38.5832 19.2859 38.4376 18.0443 38.0241 17.0997C37.779 16.5589 35.313 12.2704 35.1216 12.0495C34.9301 11.8439 34.6085 11.8286 34.3711 12.0191Z" fill="#FAD600"/>
<path d="M32.945 13.4195C32.7842 13.5566 32.5774 13.7547 32.4855 13.8613C32.2634 14.0975 31.7197 15.1867 31.6507 15.5219C31.6048 15.7656 31.5971 15.7656 31.1606 15.7656C30.8466 15.7656 30.6245 15.8189 30.3488 15.9561C30.142 16.0627 29.9582 16.1465 29.9429 16.1465C29.9276 16.1465 29.9429 15.7809 29.9659 15.3238C30.0042 14.8059 29.9965 14.4326 29.9429 14.2955C29.8434 14.0441 29.56 13.8994 29.292 13.968C28.8708 14.0746 28.8784 13.9908 28.7942 18.9496L28.7176 23.5428L25.8304 29.0652C24.2451 32.1045 22.9049 34.74 22.8666 34.9305C22.813 35.1666 22.813 35.3799 22.8819 35.6998C22.9662 36.0578 23.0504 36.1949 23.3797 36.5225C23.7933 36.9338 24.1685 37.0938 24.6969 37.0938C25.0645 37.0938 25.6925 36.8043 25.9682 36.5148C26.1291 36.3396 31.2295 26.9096 31.9877 25.3937C32.2251 24.9062 32.1792 24.6396 31.8345 24.4949C31.2985 24.2664 31.444 24.0455 28.2121 30.1012C26.5732 33.1633 25.1641 35.7303 25.0799 35.8064C24.6893 36.1721 23.9617 35.8521 23.9617 35.3189C23.9617 35.1209 24.7046 33.6279 26.9102 29.4232L29.8587 23.7865V22.3088C29.8587 21.4937 29.8817 20.3969 29.9123 19.8637L29.9582 18.8963L30.2339 19.1096C30.7777 19.5437 30.8313 19.6199 30.8849 20.0465C31.0304 21.1662 31.4593 22.2783 31.9724 22.8344C32.1332 23.0096 32.4549 23.2533 32.6846 23.3752L33.0982 23.5961L35.0817 29.1414C36.1692 32.1883 37.0575 34.7781 37.0575 34.9C37.0575 35.1742 36.7512 35.4941 36.4908 35.4941C36.0696 35.4941 35.9777 35.3037 34.5303 31.4951C32.654 26.5668 32.7995 26.9096 32.5314 26.8182C32.1562 26.6887 31.7733 26.9324 31.7733 27.298C31.7733 27.5646 34.9362 35.6922 35.1353 35.9512C35.2502 36.0959 35.4952 36.2939 35.6867 36.393C35.9701 36.5453 36.1079 36.5682 36.5751 36.5453C37.2796 36.5148 37.6702 36.2635 37.9995 35.6465C38.1833 35.2961 38.214 35.159 38.1833 34.8086C38.1603 34.5115 37.5324 32.6605 36.0696 28.5625C34.9209 25.3557 33.9482 22.6973 33.91 22.6516C33.8717 22.5982 33.6802 22.5221 33.4964 22.4764C33.3126 22.4307 33.0369 22.2859 32.8991 22.1641C32.6616 21.9584 32.34 21.3719 32.1945 20.8691C32.1409 20.6939 32.1485 20.6939 32.4319 20.9377C32.5927 21.0824 32.9067 21.2805 33.1365 21.3871C33.4964 21.5471 33.6343 21.5699 34.1397 21.5395C34.8519 21.4937 35.2349 21.3186 35.6637 20.8311C36.0696 20.374 36.2458 19.8561 36.1998 19.2467C36.1692 18.8658 35.9854 18.325 35.2349 16.4816C34.1244 13.7395 33.9406 13.3129 33.8181 13.2367C33.6036 13.0996 33.2284 13.1758 32.945 13.4195ZM34.2546 17.0453C35.2119 19.4219 35.2272 19.4676 34.9285 19.9779C34.7524 20.2674 34.2086 20.5187 33.864 20.4654C33.5577 20.4121 33.2667 20.1988 31.6967 18.8734C31.061 18.3326 30.5556 17.8451 30.5173 17.7309C30.3565 17.2891 30.8849 16.7406 31.3367 16.8777C31.4286 16.9082 31.8269 17.1977 32.2175 17.5252C32.7535 17.9822 32.9833 18.127 33.1594 18.127C33.4658 18.127 33.6879 17.8832 33.6879 17.5557C33.6879 17.3271 33.6266 17.2434 33.1518 16.8549C32.8608 16.6111 32.6157 16.3598 32.6157 16.2912C32.6157 15.9561 33.1977 14.6307 33.2973 14.7449C33.3279 14.783 33.7644 15.8189 34.2546 17.0453Z" fill="#FAD600"/>
<path d="M12.8948 13.6707C12.7876 13.7698 12.7033 13.9145 12.7033 13.9907C12.6957 14.0668 13.3619 15.4532 14.1661 17.0756C15.5905 19.9245 15.6365 20.0311 15.5599 20.2901C15.4603 20.6024 13.1475 24.5481 12.9101 24.8071C12.5885 25.1651 11.8609 24.8985 11.8609 24.4262C11.8609 24.3196 12.3587 23.4131 12.9714 22.3924C13.584 21.3793 14.0971 20.4729 14.1201 20.3815C14.1814 20.1301 12.3434 16.6034 12.0753 16.4586C11.7996 16.3063 11.478 16.4206 11.3325 16.7176C11.2253 16.9309 11.2482 16.9918 12.0677 18.6143L12.9178 20.2901L11.8762 22.042L10.827 23.794L10.8041 24.3348C10.7811 24.8147 10.8041 24.9061 11.0108 25.2641C11.455 26.0106 12.351 26.3077 13.1399 25.9725C13.3543 25.8811 13.6147 25.7211 13.7219 25.6069C13.8291 25.4926 14.5184 24.3805 15.2612 23.1313C16.678 20.7319 16.7546 20.5491 16.6627 19.8026C16.6091 19.3532 13.7832 13.686 13.5534 13.5565C13.3083 13.4346 13.0939 13.4651 12.8948 13.6707Z" fill="#FAD600"/>
<path d="M23.2324 14.1117L23.0256 14.2793L22.949 18.9105L22.8725 23.5418L20.1997 28.6605C18.7293 31.4713 17.4963 33.8021 17.4657 33.825C17.435 33.8555 16.2786 32.2787 14.8848 30.3287C13.4986 28.3787 12.2963 26.7182 12.2273 26.642C12.0589 26.4744 11.7219 26.4668 11.4921 26.6268C11.3696 26.7105 11.3236 26.8172 11.3236 27.0076C11.3236 27.2361 11.7219 27.8379 14.1113 31.1742C15.643 33.3223 16.9143 35.1504 16.9449 35.2342C17.0751 35.6531 16.5467 36.0797 16.1637 35.8664C16.0565 35.8055 14.6397 33.9545 13.0161 31.7455C10.979 28.9729 9.99875 27.7084 9.86856 27.6627C9.39374 27.4951 8.94956 27.9902 9.19462 28.4092C9.33247 28.6453 14.6704 35.9121 15.0609 36.3996C15.4056 36.8262 15.8268 37.0166 16.4165 37.0166C16.7687 37.0166 16.9525 36.9709 17.2053 36.8262L17.5422 36.6357L17.8945 36.849C18.1932 37.0242 18.3387 37.0547 18.7906 37.0547C19.4109 37.0471 19.8474 36.8643 20.1691 36.4682C20.2763 36.3311 21.6778 33.7717 23.2707 30.7781C25.3921 26.8172 26.1809 25.2709 26.1809 25.0881C26.1809 24.6844 25.6524 24.4406 25.3231 24.692C25.2542 24.7453 23.8987 27.2209 22.3134 30.1992C20.7281 33.1699 19.342 35.6836 19.2424 35.7826C18.8135 36.1635 18.1396 35.874 18.1396 35.2951C18.1396 35.0742 18.7599 33.825 21.0345 29.4908C22.6197 26.4516 23.9446 23.8846 23.9676 23.8008C23.9906 23.7094 24.0442 21.5309 24.0748 18.9486L24.1284 14.2641L23.9523 14.0965C23.7302 13.8908 23.4851 13.8908 23.2324 14.1117Z" fill="#FAD600"/>
<path d="M25.6836 15.8037C25.5764 15.9027 25.4922 16.0322 25.4922 16.0932C25.4922 16.1465 25.8062 17.5785 26.1814 19.2771C26.932 22.583 26.9396 22.6211 27.4144 22.6211C27.6825 22.6211 27.9429 22.385 27.9429 22.1412C27.9429 22.0498 27.6289 20.6025 27.2536 18.9268C26.6869 16.375 26.549 15.857 26.4035 15.7504C26.1738 15.56 25.8981 15.5828 25.6836 15.8037Z" fill="#FAD600"/>
<path d="M30.111 30.4288C29.797 30.642 29.8353 30.8172 30.5475 32.8205C30.9304 33.8793 31.2368 34.8163 31.2368 34.9C31.2368 35.3038 30.7926 35.578 30.402 35.418C30.1569 35.319 30.0957 35.1971 29.5902 33.8565C29.2839 33.0414 29.1154 32.8282 28.7937 32.8282C28.5487 32.8282 28.25 33.11 28.25 33.3385C28.25 33.4985 28.9316 35.3495 29.1307 35.7227C29.6362 36.6825 31.1066 36.8577 31.8571 36.0502C32.1864 35.6998 32.3319 35.3418 32.3319 34.8848C32.3319 34.5497 32.1941 34.0774 31.635 32.5235C31.1602 31.2057 30.8845 30.543 30.7696 30.4516C30.5705 30.284 30.3254 30.2764 30.111 30.4288Z" fill="#FAD600"/>
</svg>
